<svg xmlns="http://www.w3.org/2000/svg" viewBox="0 0 512 512">
  <defs>
    <linearGradient id="ieGrad" x1="0%" y1="0%" x2="100%" y2="100%">
      <stop offset="0%" style="stop-color:#00A4EF"/>
      <stop offset="50%" style="stop-color:#0078D4"/>
      <stop offset="100%" style="stop-color:#005A9E"/>
    </linearGradient>
  </defs>
  <!-- Anel externo (e) -->
  <path fill="url(#ieGrad)" d="M437.5,256c0-100.3-81.2-181.5-181.5-181.5c-89.8,0-164.2,65.3-178.5,150.9c6.4-47.9,29.9-91.2,66.1-122.5
    c42.7-37,98.4-52.1,152.6-41.3c54.2,10.8,100.1,45.2,125.9,94.2c16.9,32.1,24.2,68.3,21.1,104.2h-198c2.2,49.3,42.8,88.5,92.5,89.2
    c35.8,0.5,69.3-17.6,89.3-48.2l47.2,24.5C441.8,378,394.5,418,338.8,423.1c-55.7,5.1-110.4-19.1-143.5-63.5
    c-33.1-44.4-40.7-103.4-20-154.6c20.7-51.2,66.1-88.4,119.2-97.6c53.1-9.2,107.4,10.7,142.4,52.2C470.4,201.1,486.5,256,486.5,256
    H437.5z"/>
  <!-- Órbita/swoosh -->
  <ellipse fill="none" stroke="url(#ieGrad)" stroke-width="28" cx="256" cy="256" rx="220" ry="100" 
    transform="rotate(-25 256 256)"/>
  <!-- Estrela/ponto -->
  <circle fill="#FFB900" cx="420" cy="180" r="24"/>
</svg>
